# xmcd
#
# Track frame offsets:
#	150
#	15465
#	35337
#	54060
#	73592
#	86275
#	104612
#	118845
#	128412
#	141380
#	152042
#	162980
#	192952
#	205685
#	223025
#	231302
#	252137
#	273685
#	292242
#
# Disc length: 4333 seconds
#
# Revision: 0
# Processed by: cddbd v1.5.2PL0 Copyright (c) Steve Scherf et al.
# Submitted via: EasyCDDAExtractor 16.0.6.1
#
DISCID=1510eb13
DTITLE=Morriston Orpheus Choir - The Welsh Male Voice Choir [Disc 1]
DYEAR=1998
DGENRE=chorus
TTITLE0=The Rhythm of Life
TTITLE1=Always on My Mind
TTITLE2=Just a Closer Walk with Thee
TTITLE3=When I Fall in Love
TTITLE4=Rise Up Shepherd and Follow
TTITLE5=De Old Folks at Home
TTITLE6=Let it Be Me
TTITLE7=Li'l Liza Jane
TTITLE8=I'll Walk Beside You
TTITLE9=I Got Plenty O' Nuthin'
TTITLE10=You'll Never Walk Alone
TTITLE11=Neopolitan Trilogy
TTITLE12=The Anvil Chorus
TTITLE13=Nun's Chorus
TTITLE14=I'm Gonna Walk
TTITLE15=From Far Inside the Shrine
TTITLE16=The Rose
TTITLE17=You Are My Heart's Delight
TTITLE18=God Be with You
EXTD=
EXTT0=
EXTT1=
EXTT2=
EXTT3=
EXTT4=
EXTT5=
EXTT6=
EXTT7=
EXTT8=
EXTT9=
EXTT10=
EXTT11=
EXTT12=
EXTT13=
EXTT14=
EXTT15=
EXTT16=
EXTT17=
EXTT18=
PLAYORDER=
